<?xml version="1.0" encoding="UTF-8"?>
<!DOCTYPE svg PUBLIC "-//W3C//DTD SVG 1.1//EN" "http://www.w3.org/Graphics/SVG/1.1/DTD/svg11.dtd">
<svg version="1.1" xmlns="http://www.w3.org/2000/svg" xmlns:xlink="http://www.w3.org/1999/xlink" x="0" y="0" width="200" height="200" viewBox="0, 0, 200, 200">
  <g id="figure_1">
    <g id="axes_1">
      <path d="M-51.724,213.35 L283.076,213.35 L283.076,-4.09 L-51.724,-4.09 z" fill="#FFFFFF"/>
      <path d="M-36.506,213.35 L-30.419,213.35 L-30.419,213.199 L-36.506,213.199 z" fill="#1F77B4"/>
      <path d="M-30.419,213.35 L-24.331,213.35 L-24.331,213.35 L-30.419,213.35 z" fill="#1F77B4"/>
      <path d="M-24.331,213.35 L-18.244,213.35 L-18.244,213.35 L-24.331,213.35 z" fill="#1F77B4"/>
      <path d="M-18.244,213.35 L-12.157,213.35 L-12.157,213.199 L-18.244,213.199 z" fill="#1F77B4"/>
      <path d="M-12.157,213.35 L-6.07,213.35 L-6.07,213.35 L-12.157,213.35 z" fill="#1F77B4"/>
      <path d="M-6.07,213.35 L0.018,213.35 L0.018,211.994 L-6.07,211.994 z" fill="#1F77B4"/>
      <path d="M0.018,213.35 L6.105,213.35 L6.105,209.886 L0.018,209.886 z" fill="#1F77B4"/>
      <path d="M6.105,213.35 L12.192,213.35 L12.192,206.572 L6.105,206.572 z" fill="#1F77B4"/>
      <path d="M12.192,213.35 L18.279,213.35 L18.279,202.506 L12.192,202.506 z" fill="#1F77B4"/>
      <path d="M18.279,213.35 L24.367,213.35 L24.367,195.427 L18.279,195.427 z" fill="#1F77B4"/>
      <path d="M24.367,213.35 L30.454,213.35 L30.454,183.68 L24.367,183.68 z" fill="#1F77B4"/>
      <path d="M30.454,213.35 L36.541,213.35 L36.541,178.559 L30.454,178.559 z" fill="#1F77B4"/>
      <path d="M36.541,213.35 L42.629,213.35 L42.629,165.456 L36.541,165.456 z" fill="#1F77B4"/>
      <path d="M42.629,213.35 L48.716,213.35 L48.716,158.679 L42.629,158.679 z" fill="#1F77B4"/>
      <path d="M48.716,213.35 L54.803,213.35 L54.803,159.583 L48.716,159.583 z" fill="#1F77B4"/>
      <path d="M54.803,213.35 L60.89,213.35 L60.89,145.727 L54.803,145.727 z" fill="#1F77B4"/>
      <path d="M60.89,213.35 L66.978,213.35 L66.978,139.702 L60.89,139.702 z" fill="#1F77B4"/>
      <path d="M66.978,213.35 L73.065,213.35 L73.065,121.931 L66.978,121.931 z" fill="#1F77B4"/>
      <path d="M73.065,213.35 L79.152,213.35 L79.152,83.225 L73.065,83.225 z" fill="#1F77B4"/>
      <path d="M79.152,213.35 L85.239,213.35 L85.239,30.361 L79.152,30.361 z" fill="#1F77B4"/>
      <path d="M85.239,213.35 L91.327,213.35 L91.327,6.264 L85.239,6.264 z" fill="#1F77B4"/>
      <path d="M91.327,213.35 L97.414,213.35 L97.414,24.337 L91.327,24.337 z" fill="#1F77B4"/>
      <path d="M97.414,213.35 L103.501,213.35 L103.501,63.796 L97.414,63.796 z" fill="#1F77B4"/>
      <path d="M103.501,213.35 L109.589,213.35 L109.589,116.81 L103.501,116.81 z" fill="#1F77B4"/>
      <path d="M109.589,213.35 L115.676,213.35 L115.676,152.504 L109.589,152.504 z" fill="#1F77B4"/>
      <path d="M115.676,213.35 L121.763,213.35 L121.763,174.342 L115.676,174.342 z" fill="#1F77B4"/>
      <path d="M121.763,213.35 L127.85,213.35 L127.85,169.071 L121.763,169.071 z" fill="#1F77B4"/>
      <path d="M127.85,213.35 L133.938,213.35 L133.938,156.42 L127.85,156.42 z" fill="#1F77B4"/>
      <path d="M133.938,213.35 L140.025,213.35 L140.025,146.329 L133.938,146.329 z" fill="#1F77B4"/>
      <path d="M140.025,213.35 L146.112,213.35 L146.112,122.081 L140.025,122.081 z" fill="#1F77B4"/>
      <path d="M146.112,213.35 L152.199,213.35 L152.199,108.225 L146.112,108.225 z" fill="#1F77B4"/>
      <path d="M152.199,213.35 L158.287,213.35 L158.287,89.098 L152.199,89.098 z" fill="#1F77B4"/>
      <path d="M158.287,213.35 L164.374,213.35 L164.374,77.803 L158.287,77.803 z" fill="#1F77B4"/>
      <path d="M164.374,213.35 L170.461,213.35 L170.461,66.808 L164.374,66.808 z" fill="#1F77B4"/>
      <path d="M170.461,213.35 L176.549,213.35 L176.549,69.971 L170.461,69.971 z" fill="#1F77B4"/>
      <path d="M176.549,213.35 L182.636,213.35 L182.636,90.604 L176.549,90.604 z" fill="#1F77B4"/>
      <path d="M182.636,213.35 L188.723,213.35 L188.723,104.611 L182.636,104.611 z" fill="#1F77B4"/>
      <path d="M188.723,213.35 L194.81,213.35 L194.81,120.876 L188.723,120.876 z" fill="#1F77B4"/>
      <path d="M194.81,213.35 L200.898,213.35 L200.898,143.166 L194.81,143.166 z" fill="#1F77B4"/>
      <path d="M200.898,213.35 L206.985,213.35 L206.985,160.637 L200.898,160.637 z" fill="#1F77B4"/>
      <path d="M206.985,213.35 L213.072,213.35 L213.072,174.643 L206.985,174.643 z" fill="#1F77B4"/>
      <path d="M213.072,213.35 L219.159,213.35 L219.159,186.993 L213.072,186.993 z" fill="#1F77B4"/>
      <path d="M219.159,213.35 L225.247,213.35 L225.247,197.988 L219.159,197.988 z" fill="#1F77B4"/>
      <path d="M225.247,213.35 L231.334,213.35 L231.334,204.464 L225.247,204.464 z" fill="#1F77B4"/>
      <path d="M231.334,213.35 L237.421,213.35 L237.421,205.97 L231.334,205.97 z" fill="#1F77B4"/>
      <path d="M237.421,213.35 L243.509,213.35 L243.509,210.94 L237.421,210.94 z" fill="#1F77B4"/>
      <path d="M243.509,213.35 L249.596,213.35 L249.596,211.693 L243.509,211.693 z" fill="#1F77B4"/>
      <path d="M249.596,213.35 L255.683,213.35 L255.683,212.747 L249.596,212.747 z" fill="#1F77B4"/>
      <path d="M255.683,213.35 L261.77,213.35 L261.77,213.199 L255.683,213.199 z" fill="#1F77B4"/>
      <path d="M261.77,213.35 L267.858,213.35 L267.858,213.199 L261.77,213.199 z" fill="#1F77B4"/>
      <g id="matplotlib.axis_1">
        <g id="xtick_1">
          <g id="mb8359d1f12">
            <path d="M-27.745,213.35 L-27.745,216.85" fill="#000000"/>
            <path d="M-27.745,213.35 L-27.745,216.85" fill-opacity="0" stroke="#000000" stroke-width="0.8" stroke-linejoin="round"/>
          </g>
          <path d="M-27.748,221.308 Q-28.509,221.308 -28.893,222.058 Q-29.276,222.806 -29.276,224.311 Q-29.276,225.809 -28.893,226.559 Q-28.509,227.309 -27.748,227.309 Q-26.98,227.309 -26.598,226.559 Q-26.213,225.809 -26.213,224.311 Q-26.213,222.806 -26.598,222.058 Q-26.98,221.308 -27.748,221.308 z M-27.748,220.526 Q-26.521,220.526 -25.874,221.497 Q-25.227,222.465 -25.227,224.311 Q-25.227,226.151 -25.874,227.122 Q-26.521,228.09 -27.748,228.09 Q-28.973,228.09 -29.62,227.122 Q-30.266,226.151 -30.266,224.311 Q-30.266,222.465 -29.62,221.497 Q-28.973,220.526 -27.748,220.526 z" fill="#000000" id="DejaVuSans-30"/>
        </g>
        <g id="xtick_2">
          <g id="mb8359d1f12">
            <path d="M37.645,213.35 L37.645,216.85" fill="#000000"/>
            <path d="M37.645,213.35 L37.645,216.85" fill-opacity="0" stroke="#000000" stroke-width="0.8" stroke-linejoin="round"/>
          </g>
          <g>
            <path d="M32.523,227.118 L34.134,227.118 L34.134,221.556 L32.38,221.908 L32.38,221.009 L34.124,220.658 L35.11,220.658 L35.11,227.118 L36.721,227.118 L36.721,227.948 L32.523,227.948 z" fill="#000000" id="DejaVuSans-31"/>
            <path d="M40.822,221.308 Q40.062,221.308 39.677,222.058 Q39.294,222.806 39.294,224.311 Q39.294,225.809 39.677,226.559 Q40.062,227.309 40.822,227.309 Q41.59,227.309 41.972,226.559 Q42.357,225.809 42.357,224.311 Q42.357,222.806 41.972,222.058 Q41.59,221.308 40.822,221.308 z M40.822,220.526 Q42.049,220.526 42.696,221.497 Q43.343,222.465 43.343,224.311 Q43.343,226.151 42.696,227.122 Q42.049,228.09 40.822,228.09 Q39.597,228.09 38.951,227.122 Q38.304,226.151 38.304,224.311 Q38.304,222.465 38.951,221.497 Q39.597,220.526 40.822,220.526 z" fill="#000000" id="DejaVuSans-30"/>
          </g>
        </g>
        <g id="xtick_3">
          <g id="mb8359d1f12">
            <path d="M103.034,213.35 L103.034,216.85" fill="#000000"/>
            <path d="M103.034,213.35 L103.034,216.85" fill-opacity="0" stroke="#000000" stroke-width="0.8" stroke-linejoin="round"/>
          </g>
          <g>
            <path d="M98.59,227.118 L102.032,227.118 L102.032,227.948 L97.404,227.948 L97.404,227.118 Q97.965,226.537 98.934,225.559 Q99.904,224.579 100.152,224.295 Q100.626,223.764 100.813,223.395 Q101.002,223.026 101.002,222.67 Q101.002,222.089 100.595,221.723 Q100.187,221.356 99.532,221.356 Q99.068,221.356 98.552,221.517 Q98.038,221.678 97.452,222.006 L97.452,221.009 Q98.048,220.77 98.565,220.648 Q99.084,220.526 99.513,220.526 Q100.646,220.526 101.32,221.093 Q101.993,221.659 101.993,222.606 Q101.993,223.056 101.824,223.459 Q101.657,223.861 101.212,224.408 Q101.09,224.55 100.435,225.226 Q99.782,225.903 98.59,227.118 z" fill="#000000" id="DejaVuSans-32"/>
            <path d="M106.212,221.308 Q105.451,221.308 105.066,222.058 Q104.683,222.806 104.683,224.311 Q104.683,225.809 105.066,226.559 Q105.451,227.309 106.212,227.309 Q106.979,227.309 107.362,226.559 Q107.746,225.809 107.746,224.311 Q107.746,222.806 107.362,222.058 Q106.979,221.308 106.212,221.308 z M106.212,220.526 Q107.438,220.526 108.085,221.497 Q108.732,222.465 108.732,224.311 Q108.732,226.151 108.085,227.122 Q107.438,228.09 106.212,228.09 Q104.987,228.09 104.34,227.122 Q103.693,226.151 103.693,224.311 Q103.693,222.465 104.34,221.497 Q104.987,220.526 106.212,220.526 z" fill="#000000" id="DejaVuSans-30"/>
          </g>
        </g>
        <g id="xtick_4">
          <g id="mb8359d1f12">
            <path d="M168.423,213.35 L168.423,216.85" fill="#000000"/>
            <path d="M168.423,213.35 L168.423,216.85" fill-opacity="0" stroke="#000000" stroke-width="0.8" stroke-linejoin="round"/>
          </g>
          <g>
            <path d="M166.118,224.017 Q166.826,224.168 167.223,224.648 Q167.621,225.126 167.621,225.829 Q167.621,226.908 166.879,227.5 Q166.137,228.09 164.77,228.09 Q164.312,228.09 163.826,228 Q163.34,227.909 162.823,227.728 L162.823,226.776 Q163.232,227.015 163.72,227.137 Q164.209,227.259 164.742,227.259 Q165.668,227.259 166.154,226.893 Q166.64,226.528 166.64,225.829 Q166.64,225.184 166.188,224.822 Q165.737,224.458 164.932,224.458 L164.082,224.458 L164.082,223.647 L164.971,223.647 Q165.698,223.647 166.084,223.356 Q166.47,223.065 166.47,222.518 Q166.47,221.958 166.071,221.658 Q165.674,221.356 164.932,221.356 Q164.526,221.356 164.062,221.445 Q163.598,221.533 163.042,221.717 L163.042,220.839 Q163.604,220.683 164.095,220.604 Q164.585,220.526 165.02,220.526 Q166.143,220.526 166.796,221.037 Q167.451,221.547 167.451,222.415 Q167.451,223.022 167.104,223.439 Q166.757,223.856 166.118,224.017 z" fill="#000000" id="DejaVuSans-33"/>
            <path d="M171.601,221.308 Q170.84,221.308 170.455,222.058 Q170.073,222.806 170.073,224.311 Q170.073,225.809 170.455,226.559 Q170.84,227.309 171.601,227.309 Q172.368,227.309 172.751,226.559 Q173.135,225.809 173.135,224.311 Q173.135,222.806 172.751,222.058 Q172.368,221.308 171.601,221.308 z M171.601,220.526 Q172.827,220.526 173.474,221.497 Q174.121,222.465 174.121,224.311 Q174.121,226.151 173.474,227.122 Q172.827,228.09 171.601,228.09 Q170.376,228.09 169.729,227.122 Q169.082,226.151 169.082,224.311 Q169.082,222.465 169.729,221.497 Q170.376,220.526 171.601,220.526 z" fill="#000000" id="DejaVuSans-30"/>
          </g>
        </g>
        <g id="xtick_5">
          <g id="mb8359d1f12">
            <path d="M233.812,213.35 L233.812,216.85" fill="#000000"/>
            <path d="M233.812,213.35 L233.812,216.85" fill-opacity="0" stroke="#000000" stroke-width="0.8" stroke-linejoin="round"/>
          </g>
          <g>
            <path d="M231.229,221.517 L228.738,225.409 L231.229,225.409 z M230.97,220.658 L232.21,220.658 L232.21,225.409 L233.251,225.409 L233.251,226.229 L232.21,226.229 L232.21,227.948 L231.229,227.948 L231.229,226.229 L227.938,226.229 L227.938,225.278 z" fill="#000000" id="DejaVuSans-34"/>
            <path d="M236.99,221.308 Q236.229,221.308 235.844,222.058 Q235.462,222.806 235.462,224.311 Q235.462,225.809 235.844,226.559 Q236.229,227.309 236.99,227.309 Q237.757,227.309 238.14,226.559 Q238.524,225.809 238.524,224.311 Q238.524,222.806 238.14,222.058 Q237.757,221.308 236.99,221.308 z M236.99,220.526 Q238.216,220.526 238.863,221.497 Q239.51,222.465 239.51,224.311 Q239.51,226.151 238.863,227.122 Q238.216,228.09 236.99,228.09 Q235.765,228.09 235.118,227.122 Q234.471,226.151 234.471,224.311 Q234.471,222.465 235.118,221.497 Q235.765,220.526 236.99,220.526 z" fill="#000000" id="DejaVuSans-30"/>
          </g>
        </g>
      </g>
      <g id="matplotlib.axis_2">
        <g id="ytick_1">
          <g id="mbbc8b7d788">
            <path d="M-51.724,213.35 L-55.224,213.35" fill="#000000"/>
            <path d="M-51.724,213.35 L-55.224,213.35" fill-opacity="0" stroke="#000000" stroke-width="0.8" stroke-linejoin="round"/>
          </g>
          <path d="M-61.909,210.508 Q-62.67,210.508 -63.054,211.258 Q-63.437,212.007 -63.437,213.511 Q-63.437,215.01 -63.054,215.76 Q-62.67,216.51 -61.909,216.51 Q-61.141,216.51 -60.759,215.76 Q-60.374,215.01 -60.374,213.511 Q-60.374,212.007 -60.759,211.258 Q-61.141,210.508 -61.909,210.508 z M-61.909,209.727 Q-60.682,209.727 -60.035,210.697 Q-59.388,211.666 -59.388,213.511 Q-59.388,215.352 -60.035,216.322 Q-60.682,217.291 -61.909,217.291 Q-63.134,217.291 -63.78,216.322 Q-64.427,215.352 -64.427,213.511 Q-64.427,211.666 -63.78,210.697 Q-63.134,209.727 -61.909,209.727 z" fill="#000000" id="DejaVuSans-30"/>
        </g>
        <g id="ytick_2">
          <g id="mbbc8b7d788">
            <path d="M-51.724,183.228 L-55.224,183.228" fill="#000000"/>
            <path d="M-51.724,183.228 L-55.224,183.228" fill-opacity="0" stroke="#000000" stroke-width="0.8" stroke-linejoin="round"/>
          </g>
          <g>
            <path d="M-75.893,186.198 L-72.451,186.198 L-72.451,187.027 L-77.079,187.027 L-77.079,186.198 Q-76.518,185.616 -75.549,184.638 Q-74.579,183.659 -74.33,183.374 Q-73.857,182.843 -73.67,182.474 Q-73.48,182.105 -73.48,181.749 Q-73.48,181.168 -73.888,180.802 Q-74.296,180.435 -74.951,180.435 Q-75.415,180.435 -75.93,180.596 Q-76.445,180.757 -77.03,181.085 L-77.03,180.088 Q-76.435,179.849 -75.918,179.727 Q-75.399,179.605 -74.97,179.605 Q-73.837,179.605 -73.163,180.173 Q-72.49,180.738 -72.49,181.685 Q-72.49,182.135 -72.659,182.538 Q-72.826,182.94 -73.271,183.487 Q-73.393,183.629 -74.048,184.305 Q-74.701,184.982 -75.893,186.198 z" fill="#000000" id="DejaVuSans-32"/>
            <path d="M-68.271,180.387 Q-69.032,180.387 -69.417,181.137 Q-69.799,181.885 -69.799,183.39 Q-69.799,184.888 -69.417,185.638 Q-69.032,186.388 -68.271,186.388 Q-67.504,186.388 -67.121,185.638 Q-66.737,184.888 -66.737,183.39 Q-66.737,181.885 -67.121,181.137 Q-67.504,180.387 -68.271,180.387 z M-68.271,179.605 Q-67.045,179.605 -66.398,180.576 Q-65.751,181.545 -65.751,183.39 Q-65.751,185.23 -66.398,186.201 Q-67.045,187.17 -68.271,187.17 Q-69.496,187.17 -70.143,186.201 Q-70.79,185.23 -70.79,183.39 Q-70.79,181.545 -70.143,180.576 Q-69.496,179.605 -68.271,179.605 z" fill="#000000" id="DejaVuSans-30"/>
            <path d="M-61.909,180.387 Q-62.67,180.387 -63.054,181.137 Q-63.437,181.885 -63.437,183.39 Q-63.437,184.888 -63.054,185.638 Q-62.67,186.388 -61.909,186.388 Q-61.142,186.388 -60.759,185.638 Q-60.375,184.888 -60.375,183.39 Q-60.375,181.885 -60.759,181.137 Q-61.142,180.387 -61.909,180.387 z M-61.909,179.605 Q-60.682,179.605 -60.036,180.576 Q-59.389,181.545 -59.389,183.39 Q-59.389,185.23 -60.036,186.201 Q-60.682,187.17 -61.909,187.17 Q-63.134,187.17 -63.781,186.201 Q-64.428,185.23 -64.428,183.39 Q-64.428,181.545 -63.781,180.576 Q-63.134,179.605 -61.909,179.605 z" fill="#000000" id="DejaVuSans-30"/>
          </g>
        </g>
        <g id="ytick_3">
          <g id="mbbc8b7d788">
            <path d="M-51.724,153.107 L-55.224,153.107" fill="#000000"/>
            <path d="M-51.724,153.107 L-55.224,153.107" fill-opacity="0" stroke="#000000" stroke-width="0.8" stroke-linejoin="round"/>
          </g>
          <g>
            <path d="M-74.032,150.475 L-76.523,154.367 L-74.032,154.367 z M-74.291,149.615 L-73.051,149.615 L-73.051,154.367 L-72.01,154.367 L-72.01,155.187 L-73.051,155.187 L-73.051,156.906 L-74.032,156.906 L-74.032,155.187 L-77.323,155.187 L-77.323,154.235 z" fill="#000000" id="DejaVuSans-34"/>
            <path d="M-68.271,150.265 Q-69.032,150.265 -69.417,151.015 Q-69.799,151.764 -69.799,153.268 Q-69.799,154.767 -69.417,155.517 Q-69.032,156.267 -68.271,156.267 Q-67.504,156.267 -67.121,155.517 Q-66.737,154.767 -66.737,153.268 Q-66.737,151.764 -67.121,151.015 Q-67.504,150.265 -68.271,150.265 z M-68.271,149.484 Q-67.045,149.484 -66.398,150.454 Q-65.751,151.423 -65.751,153.268 Q-65.751,155.109 -66.398,156.079 Q-67.045,157.048 -68.271,157.048 Q-69.496,157.048 -70.143,156.079 Q-70.79,155.109 -70.79,153.268 Q-70.79,151.423 -70.143,150.454 Q-69.496,149.484 -68.271,149.484 z" fill="#000000" id="DejaVuSans-30"/>
            <path d="M-61.909,150.265 Q-62.67,150.265 -63.054,151.015 Q-63.437,151.764 -63.437,153.268 Q-63.437,154.767 -63.054,155.517 Q-62.67,156.267 -61.909,156.267 Q-61.142,156.267 -60.759,155.517 Q-60.375,154.767 -60.375,153.268 Q-60.375,151.764 -60.759,151.015 Q-61.142,150.265 -61.909,150.265 z M-61.909,149.484 Q-60.682,149.484 -60.036,150.454 Q-59.389,151.423 -59.389,153.268 Q-59.389,155.109 -60.036,156.079 Q-60.682,157.048 -61.909,157.048 Q-63.134,157.048 -63.781,156.079 Q-64.428,155.109 -64.428,153.268 Q-64.428,151.423 -63.781,150.454 Q-63.134,149.484 -61.909,149.484 z" fill="#000000" id="DejaVuSans-30"/>
          </g>
        </g>
        <g id="ytick_4">
          <g id="mbbc8b7d788">
            <path d="M-51.724,122.985 L-55.224,122.985" fill="#000000"/>
            <path d="M-51.724,122.985 L-55.224,122.985" fill-opacity="0" stroke="#000000" stroke-width="0.8" stroke-linejoin="round"/>
          </g>
          <g>
            <path d="M-74.51,122.747 Q-75.174,122.747 -75.563,123.201 Q-75.951,123.655 -75.951,124.445 Q-75.951,125.231 -75.563,125.689 Q-75.174,126.145 -74.51,126.145 Q-73.846,126.145 -73.459,125.689 Q-73.071,125.231 -73.071,124.445 Q-73.071,123.655 -73.459,123.201 Q-73.846,122.747 -74.51,122.747 z M-72.552,119.655 L-72.552,120.553 Q-72.924,120.378 -73.302,120.286 Q-73.68,120.192 -74.052,120.192 Q-75.029,120.192 -75.545,120.851 Q-76.059,121.511 -76.132,122.844 Q-75.845,122.419 -75.41,122.192 Q-74.974,121.965 -74.452,121.965 Q-73.354,121.965 -72.716,122.633 Q-72.079,123.298 -72.079,124.445 Q-72.079,125.569 -72.743,126.248 Q-73.407,126.926 -74.51,126.926 Q-75.776,126.926 -76.445,125.958 Q-77.113,124.987 -77.113,123.147 Q-77.113,121.419 -76.293,120.39 Q-75.473,119.362 -74.091,119.362 Q-73.72,119.362 -73.341,119.436 Q-72.963,119.509 -72.552,119.655 z" fill="#000000" id="DejaVuSans-36"/>
            <path d="M-68.271,120.144 Q-69.032,120.144 -69.417,120.894 Q-69.799,121.642 -69.799,123.147 Q-69.799,124.645 -69.417,125.395 Q-69.032,126.145 -68.271,126.145 Q-67.504,126.145 -67.121,125.395 Q-66.737,124.645 -66.737,123.147 Q-66.737,121.642 -67.121,120.894 Q-67.504,120.144 -68.271,120.144 z M-68.271,119.362 Q-67.045,119.362 -66.398,120.333 Q-65.751,121.301 -65.751,123.147 Q-65.751,124.987 -66.398,125.958 Q-67.045,126.926 -68.271,126.926 Q-69.496,126.926 -70.143,125.958 Q-70.79,124.987 -70.79,123.147 Q-70.79,121.301 -70.143,120.333 Q-69.496,119.362 -68.271,119.362 z" fill="#000000" id="DejaVuSans-30"/>
            <path d="M-61.909,120.144 Q-62.67,120.144 -63.054,120.894 Q-63.437,121.642 -63.437,123.147 Q-63.437,124.645 -63.054,125.395 Q-62.67,126.145 -61.909,126.145 Q-61.142,126.145 -60.759,125.395 Q-60.375,124.645 -60.375,123.147 Q-60.375,121.642 -60.759,120.894 Q-61.142,120.144 -61.909,120.144 z M-61.909,119.362 Q-60.682,119.362 -60.036,120.333 Q-59.389,121.301 -59.389,123.147 Q-59.389,124.987 -60.036,125.958 Q-60.682,126.926 -61.909,126.926 Q-63.134,126.926 -63.781,125.958 Q-64.428,124.987 -64.428,123.147 Q-64.428,121.301 -63.781,120.333 Q-63.134,119.362 -61.909,119.362 z" fill="#000000" id="DejaVuSans-30"/>
          </g>
        </g>
        <g id="ytick_5">
          <g id="mbbc8b7d788">
            <path d="M-51.724,92.863 L-55.224,92.863" fill="#000000"/>
            <path d="M-51.724,92.863 L-55.224,92.863" fill-opacity="0" stroke="#000000" stroke-width="0.8" stroke-linejoin="round"/>
          </g>
          <g>
            <path d="M-74.634,93.2 Q-75.337,93.2 -75.74,93.577 Q-76.141,93.953 -76.141,94.611 Q-76.141,95.27 -75.74,95.647 Q-75.337,96.024 -74.634,96.024 Q-73.93,96.024 -73.526,95.645 Q-73.12,95.266 -73.12,94.611 Q-73.12,93.953 -73.523,93.577 Q-73.924,93.2 -74.634,93.2 z M-75.62,92.781 Q-76.254,92.625 -76.609,92.191 Q-76.962,91.755 -76.962,91.13 Q-76.962,90.256 -76.34,89.749 Q-75.716,89.241 -74.634,89.241 Q-73.545,89.241 -72.924,89.749 Q-72.304,90.256 -72.304,91.13 Q-72.304,91.755 -72.659,92.191 Q-73.012,92.625 -73.641,92.781 Q-72.929,92.947 -72.532,93.431 Q-72.134,93.914 -72.134,94.611 Q-72.134,95.672 -72.78,96.239 Q-73.427,96.805 -74.634,96.805 Q-75.838,96.805 -76.487,96.239 Q-77.134,95.672 -77.134,94.611 Q-77.134,93.914 -76.734,93.431 Q-76.332,92.947 -75.62,92.781 z M-75.98,91.224 Q-75.98,91.789 -75.627,92.106 Q-75.273,92.424 -74.634,92.424 Q-73.998,92.424 -73.64,92.106 Q-73.28,91.789 -73.28,91.224 Q-73.28,90.656 -73.64,90.339 Q-73.998,90.022 -74.634,90.022 Q-75.273,90.022 -75.627,90.339 Q-75.98,90.656 -75.98,91.224 z" fill="#000000" id="DejaVuSans-38"/>
            <path d="M-68.271,90.022 Q-69.032,90.022 -69.417,90.772 Q-69.799,91.52 -69.799,93.025 Q-69.799,94.524 -69.417,95.274 Q-69.032,96.024 -68.271,96.024 Q-67.504,96.024 -67.121,95.274 Q-66.737,94.524 -66.737,93.025 Q-66.737,91.52 -67.121,90.772 Q-67.504,90.022 -68.271,90.022 z M-68.271,89.241 Q-67.045,89.241 -66.398,90.211 Q-65.751,91.18 -65.751,93.025 Q-65.751,94.866 -66.398,95.836 Q-67.045,96.805 -68.271,96.805 Q-69.496,96.805 -70.143,95.836 Q-70.79,94.866 -70.79,93.025 Q-70.79,91.18 -70.143,90.211 Q-69.496,89.241 -68.271,89.241 z" fill="#000000" id="DejaVuSans-30"/>
            <path d="M-61.909,90.022 Q-62.67,90.022 -63.054,90.772 Q-63.437,91.52 -63.437,93.025 Q-63.437,94.524 -63.054,95.274 Q-62.67,96.024 -61.909,96.024 Q-61.142,96.024 -60.759,95.274 Q-60.375,94.524 -60.375,93.025 Q-60.375,91.52 -60.759,90.772 Q-61.142,90.022 -61.909,90.022 z M-61.909,89.241 Q-60.682,89.241 -60.036,90.211 Q-59.389,91.18 -59.389,93.025 Q-59.389,94.866 -60.036,95.836 Q-60.682,96.805 -61.909,96.805 Q-63.134,96.805 -63.781,95.836 Q-64.428,94.866 -64.428,93.025 Q-64.428,91.18 -63.781,90.211 Q-63.134,89.241 -61.909,89.241 z" fill="#000000" id="DejaVuSans-30"/>
          </g>
        </g>
        <g id="ytick_6">
          <g id="mbbc8b7d788">
            <path d="M-51.724,62.742 L-55.224,62.742" fill="#000000"/>
            <path d="M-51.724,62.742 L-55.224,62.742" fill-opacity="0" stroke="#000000" stroke-width="0.8" stroke-linejoin="round"/>
          </g>
          <g>
            <path d="M-82.934,65.711 L-81.323,65.711 L-81.323,60.149 L-83.076,60.5 L-83.076,59.602 L-81.332,59.25 L-80.346,59.25 L-80.346,65.711 L-78.735,65.711 L-78.735,66.541 L-82.934,66.541 z" fill="#000000" id="DejaVuSans-31"/>
            <path d="M-74.634,59.9 Q-75.395,59.9 -75.779,60.65 Q-76.162,61.399 -76.162,62.904 Q-76.162,64.402 -75.779,65.152 Q-75.395,65.902 -74.634,65.902 Q-73.867,65.902 -73.484,65.152 Q-73.099,64.402 -73.099,62.904 Q-73.099,61.399 -73.484,60.65 Q-73.867,59.9 -74.634,59.9 z M-74.634,59.119 Q-73.407,59.119 -72.76,60.09 Q-72.113,61.058 -72.113,62.904 Q-72.113,64.744 -72.76,65.715 Q-73.407,66.683 -74.634,66.683 Q-75.859,66.683 -76.506,65.715 Q-77.153,64.744 -77.153,62.904 Q-77.153,61.058 -76.506,60.09 Q-75.859,59.119 -74.634,59.119 z" fill="#000000" id="DejaVuSans-30"/>
            <path d="M-68.271,59.9 Q-69.032,59.9 -69.417,60.65 Q-69.8,61.399 -69.8,62.904 Q-69.8,64.402 -69.417,65.152 Q-69.032,65.902 -68.271,65.902 Q-67.504,65.902 -67.121,65.152 Q-66.737,64.402 -66.737,62.904 Q-66.737,61.399 -67.121,60.65 Q-67.504,59.9 -68.271,59.9 z M-68.271,59.119 Q-67.045,59.119 -66.398,60.09 Q-65.751,61.058 -65.751,62.904 Q-65.751,64.744 -66.398,65.715 Q-67.045,66.683 -68.271,66.683 Q-69.496,66.683 -70.143,65.715 Q-70.79,64.744 -70.79,62.904 Q-70.79,61.058 -70.143,60.09 Q-69.496,59.119 -68.271,59.119 z" fill="#000000" id="DejaVuSans-30"/>
            <path d="M-61.909,59.9 Q-62.67,59.9 -63.054,60.65 Q-63.437,61.399 -63.437,62.904 Q-63.437,64.402 -63.054,65.152 Q-62.67,65.902 -61.909,65.902 Q-61.142,65.902 -60.759,65.152 Q-60.375,64.402 -60.375,62.904 Q-60.375,61.399 -60.759,60.65 Q-61.142,59.9 -61.909,59.9 z M-61.909,59.119 Q-60.683,59.119 -60.036,60.09 Q-59.389,61.058 -59.389,62.904 Q-59.389,64.744 -60.036,65.715 Q-60.683,66.683 -61.909,66.683 Q-63.134,66.683 -63.781,65.715 Q-64.428,64.744 -64.428,62.904 Q-64.428,61.058 -63.781,60.09 Q-63.134,59.119 -61.909,59.119 z" fill="#000000" id="DejaVuSans-30"/>
          </g>
        </g>
        <g id="ytick_7">
          <g id="mbbc8b7d788">
            <path d="M-51.724,32.62 L-55.224,32.62" fill="#000000"/>
            <path d="M-51.724,32.62 L-55.224,32.62" fill-opacity="0" stroke="#000000" stroke-width="0.8" stroke-linejoin="round"/>
          </g>
          <g>
            <path d="M-82.934,35.59 L-81.323,35.59 L-81.323,30.027 L-83.076,30.379 L-83.076,29.48 L-81.332,29.129 L-80.346,29.129 L-80.346,35.59 L-78.735,35.59 L-78.735,36.42 L-82.934,36.42 z" fill="#000000" id="DejaVuSans-31"/>
            <path d="M-75.893,35.59 L-72.451,35.59 L-72.451,36.42 L-77.079,36.42 L-77.079,35.59 Q-76.518,35.009 -75.549,34.03 Q-74.579,33.051 -74.331,32.766 Q-73.857,32.235 -73.67,31.866 Q-73.481,31.498 -73.481,31.141 Q-73.481,30.56 -73.888,30.195 Q-74.296,29.827 -74.951,29.827 Q-75.415,29.827 -75.931,29.988 Q-76.445,30.149 -77.031,30.477 L-77.031,29.48 Q-76.435,29.241 -75.918,29.12 Q-75.399,28.998 -74.97,28.998 Q-73.837,28.998 -73.163,29.565 Q-72.49,30.13 -72.49,31.077 Q-72.49,31.527 -72.659,31.93 Q-72.826,32.332 -73.271,32.879 Q-73.393,33.021 -74.048,33.698 Q-74.701,34.374 -75.893,35.59 z" fill="#000000" id="DejaVuSans-32"/>
            <path d="M-68.271,29.779 Q-69.032,29.779 -69.417,30.529 Q-69.8,31.277 -69.8,32.782 Q-69.8,34.28 -69.417,35.03 Q-69.032,35.78 -68.271,35.78 Q-67.504,35.78 -67.121,35.03 Q-66.737,34.28 -66.737,32.782 Q-66.737,31.277 -67.121,30.529 Q-67.504,29.779 -68.271,29.779 z M-68.271,28.998 Q-67.045,28.998 -66.398,29.968 Q-65.751,30.937 -65.751,32.782 Q-65.751,34.623 -66.398,35.593 Q-67.045,36.562 -68.271,36.562 Q-69.496,36.562 -70.143,35.593 Q-70.79,34.623 -70.79,32.782 Q-70.79,30.937 -70.143,29.968 Q-69.496,28.998 -68.271,28.998 z" fill="#000000" id="DejaVuSans-30"/>
            <path d="M-61.909,29.779 Q-62.67,29.779 -63.054,30.529 Q-63.437,31.277 -63.437,32.782 Q-63.437,34.28 -63.054,35.03 Q-62.67,35.78 -61.909,35.78 Q-61.142,35.78 -60.759,35.03 Q-60.375,34.28 -60.375,32.782 Q-60.375,31.277 -60.759,30.529 Q-61.142,29.779 -61.909,29.779 z M-61.909,28.998 Q-60.683,28.998 -60.036,29.968 Q-59.389,30.937 -59.389,32.782 Q-59.389,34.623 -60.036,35.593 Q-60.683,36.562 -61.909,36.562 Q-63.134,36.562 -63.781,35.593 Q-64.428,34.623 -64.428,32.782 Q-64.428,30.937 -63.781,29.968 Q-63.134,28.998 -61.909,28.998 z" fill="#000000" id="DejaVuSans-30"/>
          </g>
        </g>
        <g id="ytick_8">
          <g id="mbbc8b7d788">
            <path d="M-51.724,2.499 L-55.224,2.499" fill="#000000"/>
            <path d="M-51.724,2.499 L-55.224,2.499" fill-opacity="0" stroke="#000000" stroke-width="0.8" stroke-linejoin="round"/>
          </g>
          <g>
            <path d="M-82.934,5.468 L-81.323,5.468 L-81.323,-0.094 L-83.076,0.257 L-83.076,-0.641 L-81.332,-0.993 L-80.346,-0.993 L-80.346,5.468 L-78.735,5.468 L-78.735,6.298 L-82.934,6.298 z" fill="#000000" id="DejaVuSans-31"/>
            <path d="M-74.032,-0.133 L-76.523,3.759 L-74.032,3.759 z M-74.292,-0.993 L-73.051,-0.993 L-73.051,3.759 L-72.01,3.759 L-72.01,4.579 L-73.051,4.579 L-73.051,6.298 L-74.032,6.298 L-74.032,4.579 L-77.323,4.579 L-77.323,3.628 z" fill="#000000" id="DejaVuSans-34"/>
            <path d="M-68.271,-0.343 Q-69.032,-0.343 -69.417,0.407 Q-69.8,1.156 -69.8,2.66 Q-69.8,4.159 -69.417,4.909 Q-69.032,5.659 -68.271,5.659 Q-67.504,5.659 -67.121,4.909 Q-66.737,4.159 -66.737,2.66 Q-66.737,1.156 -67.121,0.407 Q-67.504,-0.343 -68.271,-0.343 z M-68.271,-1.124 Q-67.045,-1.124 -66.398,-0.154 Q-65.751,0.815 -65.751,2.66 Q-65.751,4.501 -66.398,5.471 Q-67.045,6.44 -68.271,6.44 Q-69.496,6.44 -70.143,5.471 Q-70.79,4.501 -70.79,2.66 Q-70.79,0.815 -70.143,-0.154 Q-69.496,-1.124 -68.271,-1.124 z" fill="#000000" id="DejaVuSans-30"/>
            <path d="M-61.909,-0.343 Q-62.67,-0.343 -63.054,0.407 Q-63.437,1.156 -63.437,2.66 Q-63.437,4.159 -63.054,4.909 Q-62.67,5.659 -61.909,5.659 Q-61.142,5.659 -60.759,4.909 Q-60.375,4.159 -60.375,2.66 Q-60.375,1.156 -60.759,0.407 Q-61.142,-0.343 -61.909,-0.343 z M-61.909,-1.124 Q-60.683,-1.124 -60.036,-0.154 Q-59.389,0.815 -59.389,2.66 Q-59.389,4.501 -60.036,5.471 Q-60.683,6.44 -61.909,6.44 Q-63.134,6.44 -63.781,5.471 Q-64.428,4.501 -64.428,2.66 Q-64.428,0.815 -63.781,-0.154 Q-63.134,-1.124 -61.909,-1.124 z" fill="#000000" id="DejaVuSans-30"/>
          </g>
        </g>
      </g>
      <path d="M-51.724,213.35 L-51.724,-4.09" fill-opacity="0" stroke="#000000" stroke-width="0.8" stroke-linecap="square"/>
      <path d="M283.076,213.35 L283.076,-4.09" fill-opacity="0" stroke="#000000" stroke-width="0.8" stroke-linecap="square"/>
      <path d="M-51.724,213.35 L283.076,213.35" fill-opacity="0" stroke="#000000" stroke-width="0.8" stroke-linecap="square"/>
      <path d="M-51.724,-4.09 L283.076,-4.09" fill-opacity="0" stroke="#000000" stroke-width="0.8" stroke-linecap="square"/>
    </g>
  </g>
</svg>
