<?xml version="1.0" encoding="UTF-8"?>
<!DOCTYPE svg PUBLIC "-//W3C//DTD SVG 1.1//EN" "http://www.w3.org/Graphics/SVG/1.1/DTD/svg11.dtd">
<svg version="1.1" xmlns="http://www.w3.org/2000/svg" xmlns:xlink="http://www.w3.org/1999/xlink" x="0" y="0" width="150" height="150" viewBox="0, 0, 150, 150">
  <g id="surface1">
    <g>
      <path d="M-80,-40.5 L217,-40.5 L217,190.5 L-80,190.5 L-80,-40.5 z" fill="#EEEEEE"/>
      <path d="M-80,-40.5 L217,-40.5 L217,190.5 L-80,190.5 L-80,-40.5 z" fill-opacity="0" stroke="#000000" stroke-width="1.121"/>
    </g>
    <path d="M-29.432,-5.975 L-29.432,127.405 L137.572,127.405" fill-opacity="0" stroke="#000000" stroke-width="1.121" stroke-miterlimit="10"/>
    <g>
      <path d="M-32.01,0.04 L-29.432,-5.975 L-26.854,0.04 L-29.432,-1.677 L-32.01,0.04 L-29.432,-5.975" fill="#000000"/>
      <path d="M-32.01,0.04 L-29.432,-5.975 L-26.854,0.04 L-29.432,-1.677 L-32.01,0.04 L-29.432,-5.975" fill-opacity="0" stroke="#000000" stroke-width="1.121" stroke-miterlimit="10"/>
    </g>
    <g>
      <path d="M131.557,124.827 L137.572,127.405 L131.557,129.983 L133.277,127.405 L131.557,124.827 L137.572,127.405" fill="#000000"/>
      <path d="M131.557,124.827 L137.572,127.405 L131.557,129.983 L133.277,127.405 L131.557,124.827 L137.572,127.405" fill-opacity="0" stroke="#000000" stroke-width="1.121" stroke-miterlimit="10"/>
    </g>
    <path d="M-62.271,66.074 L-62.271,76.246 L-55.603,76.246 L-55.603,75.414 L-61.31,75.414 L-61.31,66.074 z M-62.271,66.074" fill="#000000"/>
    <path d="M-51.852,69.437 C-51.425,69.437 -51.05,69.528 -50.727,69.707 C-50.408,69.889 -50.141,70.126 -49.93,70.422 C-49.714,70.712 -49.55,71.043 -49.438,71.418 C-49.33,71.793 -49.274,72.177 -49.274,72.566 C-49.274,72.959 -49.33,73.34 -49.438,73.715 C-49.55,74.09 -49.714,74.427 -49.93,74.723 C-50.141,75.021 -50.408,75.259 -50.727,75.437 C-51.05,75.619 -51.425,75.707 -51.852,75.707 C-52.283,75.707 -52.658,75.619 -52.977,75.437 C-53.3,75.259 -53.569,75.021 -53.786,74.723 C-53.997,74.427 -54.158,74.09 -54.266,73.715 C-54.378,73.34 -54.43,72.959 -54.43,72.566 C-54.43,72.177 -54.378,71.793 -54.266,71.418 C-54.158,71.043 -53.997,70.712 -53.786,70.422 C-53.569,70.126 -53.3,69.889 -52.977,69.707 C-52.658,69.528 -52.283,69.437 -51.852,69.437 z M-51.852,68.676 C-52.415,68.676 -52.913,68.781 -53.341,68.992 C-53.771,69.203 -54.135,69.484 -54.43,69.836 C-54.729,70.187 -54.955,70.598 -55.11,71.066 C-55.26,71.535 -55.333,72.036 -55.333,72.566 C-55.333,73.1 -55.26,73.604 -55.11,74.078 C-54.955,74.547 -54.729,74.957 -54.43,75.309 C-54.135,75.66 -53.771,75.938 -53.341,76.141 C-52.913,76.343 -52.415,76.445 -51.852,76.445 C-51.29,76.445 -50.795,76.343 -50.364,76.141 C-49.936,75.938 -49.573,75.66 -49.274,75.309 C-48.978,74.957 -48.756,74.547 -48.606,74.078 C-48.451,73.604 -48.372,73.1 -48.372,72.566 C-48.372,72.036 -48.451,71.535 -48.606,71.066 C-48.756,70.598 -48.978,70.187 -49.274,69.836 C-49.573,69.484 -49.936,69.203 -50.364,68.992 C-50.795,68.781 -51.29,68.676 -51.852,68.676 z M-51.852,68.676" fill="#000000"/>
    <path d="M-42.798,71.043 L-41.907,71.043 C-41.925,70.645 -42.007,70.302 -42.154,70.012 C-42.294,69.716 -42.488,69.47 -42.728,69.273 C-42.971,69.071 -43.252,68.922 -43.572,68.828 C-43.885,68.729 -44.228,68.676 -44.603,68.676 C-44.925,68.676 -45.247,68.717 -45.575,68.793 C-45.904,68.872 -46.202,68.992 -46.466,69.156 C-46.733,69.314 -46.947,69.525 -47.111,69.789 C-47.275,70.056 -47.357,70.375 -47.357,70.75 C-47.357,71.063 -47.307,71.324 -47.204,71.535 C-47.105,71.746 -46.958,71.928 -46.771,72.074 C-46.583,72.224 -46.369,72.35 -46.126,72.449 C-45.877,72.552 -45.605,72.637 -45.306,72.707 L-44.157,72.965 C-43.955,73.012 -43.756,73.07 -43.56,73.141 C-43.366,73.205 -43.194,73.287 -43.044,73.387 C-42.898,73.489 -42.775,73.615 -42.681,73.762 C-42.587,73.911 -42.54,74.096 -42.54,74.312 C-42.54,74.564 -42.608,74.778 -42.74,74.957 C-42.865,75.13 -43.03,75.273 -43.232,75.391 C-43.428,75.508 -43.642,75.59 -43.876,75.637 C-44.111,75.684 -44.339,75.707 -44.556,75.707 C-45.151,75.707 -45.652,75.555 -46.056,75.25 C-46.463,74.939 -46.686,74.477 -46.724,73.867 L-47.615,73.867 C-47.544,74.767 -47.24,75.423 -46.7,75.836 C-46.161,76.243 -45.464,76.445 -44.603,76.445 C-44.26,76.445 -43.911,76.404 -43.56,76.328 C-43.208,76.258 -42.892,76.138 -42.611,75.965 C-42.329,75.786 -42.101,75.555 -41.919,75.273 C-41.74,74.992 -41.65,74.652 -41.65,74.254 C-41.65,73.926 -41.714,73.645 -41.837,73.41 C-41.954,73.176 -42.113,72.977 -42.306,72.812 C-42.502,72.648 -42.728,72.52 -42.986,72.426 C-43.238,72.326 -43.49,72.256 -43.747,72.215 L-44.943,71.945 C-45.092,71.907 -45.256,71.857 -45.435,71.793 C-45.616,71.731 -45.783,71.652 -45.939,71.559 C-46.088,71.465 -46.214,71.354 -46.314,71.219 C-46.416,71.078 -46.466,70.908 -46.466,70.703 C-46.466,70.469 -46.416,70.27 -46.314,70.105 C-46.205,69.941 -46.065,69.812 -45.892,69.719 C-45.722,69.619 -45.534,69.549 -45.329,69.508 C-45.127,69.461 -44.925,69.437 -44.72,69.437 C-44.471,69.437 -44.234,69.47 -44.005,69.531 C-43.771,69.596 -43.569,69.692 -43.396,69.824 C-43.217,69.959 -43.076,70.126 -42.974,70.328 C-42.874,70.533 -42.816,70.771 -42.798,71.043 z M-42.798,71.043" fill="#000000"/>
    <path d="M-36.101,71.043 L-35.21,71.043 C-35.228,70.645 -35.31,70.302 -35.456,70.012 C-35.597,69.716 -35.79,69.47 -36.03,69.273 C-36.274,69.071 -36.555,68.922 -36.874,68.828 C-37.188,68.729 -37.53,68.676 -37.905,68.676 C-38.228,68.676 -38.55,68.717 -38.878,68.793 C-39.206,68.872 -39.505,68.992 -39.769,69.156 C-40.035,69.314 -40.249,69.525 -40.413,69.789 C-40.577,70.056 -40.659,70.375 -40.659,70.75 C-40.659,71.063 -40.609,71.324 -40.507,71.535 C-40.407,71.746 -40.261,71.928 -40.073,72.074 C-39.886,72.224 -39.672,72.35 -39.429,72.449 C-39.18,72.552 -38.907,72.637 -38.609,72.707 L-37.46,72.965 C-37.258,73.012 -37.059,73.07 -36.862,73.141 C-36.669,73.205 -36.496,73.287 -36.347,73.387 C-36.2,73.489 -36.077,73.615 -35.984,73.762 C-35.89,73.911 -35.843,74.096 -35.843,74.312 C-35.843,74.564 -35.91,74.778 -36.042,74.957 C-36.168,75.13 -36.332,75.273 -36.534,75.391 C-36.731,75.508 -36.944,75.59 -37.179,75.637 C-37.413,75.684 -37.642,75.707 -37.859,75.707 C-38.453,75.707 -38.954,75.555 -39.359,75.25 C-39.766,74.939 -39.988,74.477 -40.026,73.867 L-40.917,73.867 C-40.847,74.767 -40.542,75.423 -40.003,75.836 C-39.464,76.243 -38.767,76.445 -37.905,76.445 C-37.563,76.445 -37.214,76.404 -36.862,76.328 C-36.511,76.258 -36.194,76.138 -35.913,75.965 C-35.632,75.786 -35.403,75.555 -35.222,75.273 C-35.043,74.992 -34.952,74.652 -34.952,74.254 C-34.952,73.926 -35.017,73.645 -35.14,73.41 C-35.257,73.176 -35.415,72.977 -35.609,72.812 C-35.805,72.648 -36.03,72.52 -36.288,72.426 C-36.54,72.326 -36.792,72.256 -37.05,72.215 L-38.245,71.945 C-38.395,71.907 -38.559,71.857 -38.737,71.793 C-38.919,71.731 -39.086,71.652 -39.241,71.559 C-39.391,71.465 -39.517,71.354 -39.616,71.219 C-39.719,71.078 -39.769,70.908 -39.769,70.703 C-39.769,70.469 -39.719,70.27 -39.616,70.105 C-39.508,69.941 -39.367,69.812 -39.194,69.719 C-39.025,69.619 -38.837,69.549 -38.632,69.508 C-38.43,69.461 -38.228,69.437 -38.023,69.437 C-37.774,69.437 -37.536,69.47 -37.308,69.531 C-37.073,69.596 -36.871,69.692 -36.698,69.824 C-36.52,69.959 -36.379,70.126 -36.276,70.328 C-36.177,70.533 -36.118,70.771 -36.101,71.043 z M-36.101,71.043" fill="#000000"/>
    <path d="M60.234,15.324 L82.649,15.324" fill-opacity="0" stroke="#0000FF" stroke-width="1.121" stroke-miterlimit="10"/>
    <path d="M60.234,37.739 L82.649,37.739" fill-opacity="0" stroke="#FF0000" stroke-width="1.121" stroke-miterlimit="10"/>
    <path d="M2.348,132.096 L2.348,142.268 L3.321,142.268 L3.321,133.666 L3.344,133.666 L9.274,142.268 L10.364,142.268 L10.364,132.096 L9.391,132.096 L9.391,140.698 L9.368,140.698 L3.438,132.096 z M2.348,132.096" fill="#000000"/>
    <path d="M17.959,142.268 L17.959,134.92 L17.068,134.92 L17.068,138.776 C17.068,139.151 17.024,139.52 16.94,139.877 C16.852,140.229 16.72,140.542 16.541,140.815 C16.359,141.09 16.131,141.313 15.85,141.483 C15.574,141.647 15.243,141.729 14.854,141.729 C14.142,141.729 13.641,141.559 13.354,141.213 C13.064,140.87 12.908,140.366 12.885,139.701 L12.885,134.92 L11.994,134.92 L11.994,139.69 C11.994,140.129 12.041,140.519 12.135,140.862 C12.229,141.199 12.375,141.489 12.58,141.729 C12.782,141.963 13.049,142.145 13.377,142.268 C13.705,142.4 14.104,142.467 14.572,142.467 C15.117,142.467 15.618,142.338 16.072,142.08 C16.524,141.817 16.869,141.436 17.104,140.944 L17.139,140.944 L17.139,142.268 z M17.959,142.268" fill="#000000"/>
    <path d="M19.495,134.92 L19.495,142.268 L20.398,142.268 L20.398,138.166 C20.398,137.777 20.436,137.416 20.515,137.088 C20.6,136.76 20.729,136.476 20.902,136.233 C21.08,135.992 21.312,135.805 21.593,135.67 C21.874,135.53 22.205,135.459 22.589,135.459 C22.87,135.459 23.108,135.506 23.304,135.6 C23.506,135.694 23.667,135.828 23.784,135.998 C23.907,136.162 23.995,136.359 24.042,136.584 C24.095,136.804 24.124,137.035 24.124,137.276 L24.124,142.268 L25.027,142.268 L25.027,138.108 C25.027,137.765 25.056,137.437 25.12,137.123 C25.182,136.804 25.287,136.52 25.437,136.268 C25.583,136.019 25.788,135.823 26.046,135.682 C26.304,135.535 26.626,135.459 27.019,135.459 C27.666,135.459 28.115,135.62 28.366,135.94 C28.624,136.253 28.753,136.713 28.753,137.323 L28.753,142.268 L29.656,142.268 L29.656,137.276 C29.656,135.559 28.841,134.698 27.218,134.698 C26.732,134.698 26.275,134.821 25.847,135.061 C25.425,135.295 25.103,135.656 24.886,136.139 C24.751,135.656 24.488,135.295 24.089,135.061 C23.697,134.821 23.26,134.698 22.777,134.698 C22.173,134.698 21.681,134.826 21.3,135.084 C20.916,135.342 20.603,135.699 20.363,136.151 L20.316,136.151 L20.316,134.92 z M19.495,134.92" fill="#000000"/>
    <path d="M31.112,132.096 L31.112,142.268 L31.932,142.268 L31.932,140.873 L31.967,140.873 C32.178,141.383 32.518,141.776 32.987,142.057 C33.455,142.329 33.989,142.467 34.592,142.467 C35.146,142.467 35.629,142.365 36.045,142.162 C36.458,141.96 36.801,141.682 37.076,141.33 C37.358,140.973 37.563,140.557 37.698,140.088 C37.829,139.614 37.897,139.113 37.897,138.588 C37.897,138.067 37.829,137.569 37.698,137.1 C37.563,136.631 37.358,136.221 37.076,135.869 C36.801,135.512 36.458,135.225 36.045,135.014 C35.629,134.803 35.146,134.698 34.592,134.698 C34.325,134.698 34.059,134.733 33.795,134.803 C33.529,134.867 33.28,134.967 33.045,135.108 C32.817,135.248 32.615,135.421 32.436,135.623 C32.263,135.82 32.131,136.051 32.037,136.315 L32.014,136.315 L32.014,132.096 z M36.994,138.588 C36.994,138.972 36.948,139.35 36.854,139.725 C36.766,140.1 36.625,140.437 36.432,140.733 C36.236,141.023 35.987,141.26 35.682,141.448 C35.377,141.635 35.014,141.729 34.592,141.729 C34.115,141.729 33.713,141.635 33.385,141.448 C33.057,141.26 32.79,141.023 32.588,140.733 C32.383,140.437 32.237,140.1 32.143,139.725 C32.055,139.35 32.014,138.972 32.014,138.588 C32.014,138.213 32.055,137.838 32.143,137.463 C32.237,137.088 32.383,136.754 32.588,136.455 C32.79,136.159 33.057,135.922 33.385,135.74 C33.713,135.553 34.115,135.459 34.592,135.459 C35.014,135.459 35.377,135.553 35.682,135.74 C35.987,135.922 36.236,136.159 36.432,136.455 C36.625,136.754 36.766,137.088 36.854,137.463 C36.948,137.838 36.994,138.213 36.994,138.588 z M36.994,138.588" fill="#000000"/>
    <path d="M44.4,138.073 L39.642,138.073 C39.681,137.744 39.76,137.422 39.877,137.1 C39.994,136.781 40.149,136.499 40.346,136.256 C40.548,136.016 40.791,135.823 41.072,135.682 C41.359,135.535 41.693,135.459 42.068,135.459 C42.426,135.459 42.748,135.535 43.029,135.682 C43.316,135.823 43.559,136.016 43.756,136.256 C43.958,136.499 44.113,136.781 44.225,137.1 C44.333,137.413 44.392,137.739 44.4,138.073 z M39.642,138.834 L45.303,138.834 C45.317,138.319 45.267,137.815 45.15,137.323 C45.039,136.824 44.851,136.382 44.588,135.998 C44.33,135.609 43.99,135.295 43.568,135.061 C43.152,134.821 42.654,134.698 42.068,134.698 C41.482,134.698 40.978,134.812 40.557,135.037 C40.135,135.257 39.789,135.55 39.525,135.916 C39.259,136.285 39.059,136.701 38.928,137.17 C38.802,137.633 38.74,138.105 38.74,138.588 C38.74,139.113 38.802,139.614 38.928,140.088 C39.059,140.557 39.259,140.973 39.525,141.33 C39.789,141.682 40.135,141.96 40.557,142.162 C40.978,142.365 41.482,142.467 42.068,142.467 C42.997,142.467 43.715,142.241 44.225,141.787 C44.731,141.327 45.08,140.68 45.267,139.842 L44.377,139.842 C44.227,140.413 43.97,140.87 43.603,141.213 C43.234,141.559 42.725,141.729 42.068,141.729 C41.638,141.729 41.271,141.641 40.967,141.459 C40.662,141.281 40.407,141.055 40.205,140.78 C40.009,140.498 39.865,140.188 39.771,139.842 C39.683,139.49 39.642,139.157 39.642,138.834 z M39.642,138.834" fill="#000000"/>
    <path d="M46.354,134.92 L46.354,142.268 L47.257,142.268 L47.257,138.354 C47.257,137.964 47.321,137.604 47.456,137.276 C47.588,136.948 47.775,136.666 48.019,136.432 C48.259,136.192 48.546,136.007 48.874,135.881 C49.208,135.749 49.58,135.694 49.987,135.717 L49.987,134.815 C49.322,134.785 48.748,134.932 48.265,135.26 C47.787,135.582 47.435,136.042 47.21,136.643 L47.175,136.643 L47.175,134.92 z M46.354,134.92" fill="#000000"/>
    <path d="M57.741,135.459 C58.169,135.459 58.544,135.55 58.866,135.729 C59.186,135.91 59.452,136.148 59.663,136.444 C59.88,136.734 60.044,137.065 60.155,137.44 C60.264,137.815 60.319,138.199 60.319,138.588 C60.319,138.981 60.264,139.362 60.155,139.737 C60.044,140.112 59.88,140.449 59.663,140.744 C59.452,141.043 59.186,141.281 58.866,141.459 C58.544,141.641 58.169,141.729 57.741,141.729 C57.311,141.729 56.936,141.641 56.616,141.459 C56.294,141.281 56.025,141.043 55.808,140.744 C55.597,140.449 55.436,140.112 55.327,139.737 C55.216,139.362 55.163,138.981 55.163,138.588 C55.163,138.199 55.216,137.815 55.327,137.44 C55.436,137.065 55.597,136.734 55.808,136.444 C56.025,136.148 56.294,135.91 56.616,135.729 C56.936,135.55 57.311,135.459 57.741,135.459 z M57.741,134.698 C57.179,134.698 56.681,134.803 56.253,135.014 C55.822,135.225 55.459,135.506 55.163,135.858 C54.864,136.209 54.639,136.619 54.484,137.088 C54.334,137.557 54.261,138.058 54.261,138.588 C54.261,139.121 54.334,139.625 54.484,140.1 C54.639,140.569 54.864,140.979 55.163,141.33 C55.459,141.682 55.822,141.96 56.253,142.162 C56.681,142.365 57.179,142.467 57.741,142.467 C58.304,142.467 58.799,142.365 59.23,142.162 C59.657,141.96 60.021,141.682 60.319,141.33 C60.615,140.979 60.838,140.569 60.987,140.1 C61.143,139.625 61.222,139.121 61.222,138.588 C61.222,138.058 61.143,137.557 60.987,137.088 C60.838,136.619 60.615,136.209 60.319,135.858 C60.021,135.506 59.657,135.225 59.23,135.014 C58.799,134.803 58.304,134.698 57.741,134.698 z M57.741,134.698" fill="#000000"/>
    <path d="M65.225,135.67 L65.225,134.92 L63.772,134.92 L63.772,134.276 C63.772,134.074 63.775,133.889 63.784,133.725 C63.79,133.555 63.825,133.406 63.889,133.28 C63.951,133.148 64.048,133.042 64.182,132.963 C64.314,132.887 64.505,132.846 64.756,132.846 C64.856,132.846 64.959,132.855 65.061,132.869 C65.17,132.887 65.287,132.902 65.413,132.916 L65.413,132.155 C65.272,132.131 65.143,132.116 65.026,132.108 C64.909,132.102 64.783,132.096 64.651,132.096 C64.291,132.096 63.995,132.152 63.76,132.26 C63.532,132.363 63.35,132.506 63.21,132.694 C63.075,132.881 62.987,133.11 62.94,133.373 C62.893,133.64 62.87,133.93 62.87,134.24 L62.87,134.92 L61.616,134.92 L61.616,135.67 L62.87,135.67 L62.87,142.268 L63.772,142.268 L63.772,135.67 z M65.225,135.67" fill="#000000"/>
    <path d="M74.285,137.065 L75.176,137.065 C75.158,136.666 75.076,136.324 74.93,136.033 C74.789,135.738 74.596,135.491 74.355,135.295 C74.112,135.093 73.831,134.944 73.512,134.85 C73.198,134.75 72.855,134.698 72.48,134.698 C72.158,134.698 71.836,134.739 71.508,134.815 C71.18,134.894 70.881,135.014 70.617,135.178 C70.35,135.336 70.137,135.547 69.972,135.811 C69.808,136.077 69.726,136.397 69.726,136.772 C69.726,137.085 69.776,137.346 69.879,137.557 C69.978,137.768 70.125,137.949 70.312,138.096 C70.5,138.245 70.714,138.371 70.957,138.471 C71.206,138.574 71.478,138.658 71.777,138.729 L72.926,138.987 C73.128,139.033 73.327,139.092 73.523,139.162 C73.717,139.227 73.889,139.309 74.039,139.408 C74.185,139.511 74.308,139.637 74.402,139.783 C74.496,139.933 74.543,140.117 74.543,140.334 C74.543,140.586 74.475,140.8 74.344,140.979 C74.218,141.152 74.054,141.295 73.851,141.412 C73.655,141.53 73.441,141.612 73.207,141.658 C72.972,141.705 72.744,141.729 72.527,141.729 C71.932,141.729 71.431,141.576 71.027,141.272 C70.62,140.961 70.397,140.498 70.359,139.889 L69.469,139.889 C69.539,140.788 69.844,141.445 70.383,141.858 C70.922,142.265 71.619,142.467 72.48,142.467 C72.823,142.467 73.172,142.426 73.523,142.35 C73.875,142.28 74.191,142.159 74.472,141.987 C74.754,141.808 74.982,141.576 75.164,141.295 C75.343,141.014 75.433,140.674 75.433,140.276 C75.433,139.948 75.369,139.666 75.246,139.432 C75.129,139.198 74.971,138.998 74.777,138.834 C74.581,138.67 74.355,138.541 74.097,138.448 C73.846,138.348 73.594,138.278 73.336,138.237 L72.14,137.967 C71.991,137.929 71.827,137.879 71.648,137.815 C71.467,137.753 71.3,137.674 71.144,137.58 C70.995,137.487 70.869,137.375 70.769,137.24 C70.667,137.1 70.617,136.93 70.617,136.725 C70.617,136.49 70.667,136.291 70.769,136.127 C70.878,135.963 71.018,135.834 71.191,135.74 C71.361,135.641 71.549,135.571 71.754,135.53 C71.956,135.483 72.158,135.459 72.363,135.459 C72.612,135.459 72.849,135.491 73.078,135.553 C73.312,135.617 73.514,135.714 73.687,135.846 C73.866,135.981 74.007,136.148 74.109,136.35 C74.209,136.555 74.267,136.792 74.285,137.065 z M74.285,137.065" fill="#000000"/>
    <path d="M76.508,137.17 L77.399,137.17 C77.422,136.57 77.612,136.136 77.973,135.869 C78.33,135.597 78.796,135.459 79.367,135.459 C79.631,135.459 79.883,135.483 80.117,135.53 C80.352,135.571 80.554,135.647 80.727,135.764 C80.905,135.875 81.043,136.028 81.137,136.221 C81.236,136.417 81.289,136.666 81.289,136.971 C81.289,137.167 81.26,137.328 81.207,137.451 C81.16,137.577 81.09,137.674 80.996,137.744 C80.903,137.815 80.779,137.867 80.633,137.897 C80.492,137.92 80.328,137.944 80.141,137.967 C79.654,138.023 79.174,138.081 78.699,138.143 C78.231,138.207 77.809,138.316 77.434,138.471 C77.059,138.62 76.757,138.84 76.531,139.127 C76.303,139.417 76.192,139.819 76.192,140.334 C76.192,140.703 76.253,141.023 76.379,141.295 C76.511,141.562 76.687,141.784 76.906,141.963 C77.132,142.136 77.393,142.262 77.692,142.338 C77.996,142.423 78.316,142.467 78.653,142.467 C79.01,142.467 79.32,142.432 79.578,142.362 C79.842,142.297 80.076,142.206 80.281,142.08 C80.492,141.957 80.68,141.805 80.844,141.623 C81.008,141.436 81.172,141.225 81.336,140.99 L81.36,140.99 C81.36,141.178 81.371,141.351 81.395,141.506 C81.418,141.664 81.468,141.799 81.547,141.916 C81.623,142.028 81.729,142.113 81.863,142.174 C82.004,142.239 82.186,142.268 82.414,142.268 C82.537,142.268 82.64,142.265 82.719,142.256 C82.804,142.25 82.898,142.233 83,142.209 L83,141.459 C82.912,141.5 82.819,141.518 82.719,141.518 C82.367,141.518 82.192,141.336 82.192,140.967 L82.192,137.065 C82.192,136.573 82.11,136.174 81.945,135.869 C81.787,135.559 81.582,135.316 81.324,135.143 C81.067,134.973 80.774,134.856 80.445,134.791 C80.123,134.73 79.804,134.698 79.485,134.698 C79.054,134.698 78.664,134.75 78.313,134.85 C77.961,134.944 77.651,135.093 77.387,135.295 C77.129,135.491 76.921,135.746 76.766,136.057 C76.616,136.37 76.531,136.742 76.508,137.17 z M81.289,138.248 L81.289,139.42 C81.289,139.781 81.219,140.106 81.078,140.393 C80.944,140.674 80.762,140.917 80.528,141.119 C80.293,141.316 80.018,141.468 79.707,141.576 C79.394,141.679 79.066,141.729 78.723,141.729 C78.518,141.729 78.316,141.699 78.113,141.635 C77.917,141.565 77.741,141.468 77.586,141.342 C77.437,141.21 77.317,141.058 77.223,140.885 C77.135,140.706 77.094,140.504 77.094,140.276 C77.094,139.918 77.199,139.64 77.41,139.444 C77.621,139.25 77.891,139.101 78.219,138.998 C78.553,138.89 78.925,138.811 79.332,138.764 C79.736,138.711 80.129,138.647 80.504,138.576 C80.627,138.562 80.774,138.53 80.938,138.483 C81.102,138.43 81.21,138.351 81.266,138.248 z M81.289,138.248" fill="#000000"/>
    <path d="M83.815,134.92 L83.815,142.268 L84.718,142.268 L84.718,138.166 C84.718,137.777 84.756,137.416 84.835,137.088 C84.92,136.76 85.049,136.476 85.222,136.233 C85.4,135.992 85.632,135.805 85.913,135.67 C86.194,135.53 86.525,135.459 86.909,135.459 C87.19,135.459 87.428,135.506 87.624,135.6 C87.826,135.694 87.987,135.828 88.104,135.998 C88.228,136.162 88.315,136.359 88.362,136.584 C88.415,136.804 88.444,137.035 88.444,137.276 L88.444,142.268 L89.347,142.268 L89.347,138.108 C89.347,137.765 89.376,137.437 89.44,137.123 C89.502,136.804 89.607,136.52 89.757,136.268 C89.903,136.019 90.108,135.823 90.366,135.682 C90.624,135.535 90.946,135.459 91.339,135.459 C91.986,135.459 92.435,135.62 92.687,135.94 C92.944,136.253 93.073,136.713 93.073,137.323 L93.073,142.268 L93.976,142.268 L93.976,137.276 C93.976,135.559 93.161,134.698 91.538,134.698 C91.052,134.698 90.595,134.821 90.167,135.061 C89.745,135.295 89.423,135.656 89.206,136.139 C89.071,135.656 88.808,135.295 88.409,135.061 C88.017,134.821 87.58,134.698 87.097,134.698 C86.493,134.698 86.001,134.826 85.62,135.084 C85.236,135.342 84.923,135.699 84.683,136.151 L84.636,136.151 L84.636,134.92 z M83.815,134.92" fill="#000000"/>
    <path d="M95.446,134.92 L95.446,144.975 L96.348,144.975 L96.348,140.873 L96.371,140.873 C96.465,141.14 96.597,141.374 96.77,141.576 C96.948,141.773 97.151,141.937 97.379,142.069 C97.614,142.203 97.863,142.297 98.129,142.362 C98.393,142.432 98.659,142.467 98.926,142.467 C99.48,142.467 99.963,142.365 100.379,142.162 C100.792,141.96 101.135,141.682 101.41,141.33 C101.692,140.973 101.897,140.557 102.032,140.088 C102.163,139.614 102.231,139.113 102.231,138.588 C102.231,138.067 102.163,137.569 102.032,137.1 C101.897,136.631 101.692,136.221 101.41,135.869 C101.135,135.512 100.792,135.225 100.379,135.014 C99.963,134.803 99.48,134.698 98.926,134.698 C98.323,134.698 97.789,134.838 97.321,135.119 C96.852,135.401 96.512,135.799 96.301,136.315 L96.266,136.315 L96.266,134.92 z M101.328,138.588 C101.328,138.972 101.282,139.35 101.188,139.725 C101.1,140.1 100.959,140.437 100.766,140.733 C100.57,141.023 100.321,141.26 100.016,141.448 C99.711,141.635 99.348,141.729 98.926,141.729 C98.448,141.729 98.047,141.635 97.719,141.448 C97.391,141.26 97.124,141.023 96.922,140.733 C96.717,140.437 96.571,140.1 96.477,139.725 C96.389,139.35 96.348,138.972 96.348,138.588 C96.348,138.175 96.386,137.777 96.465,137.393 C96.541,137.012 96.679,136.678 96.875,136.397 C97.077,136.115 97.344,135.89 97.672,135.717 C98.006,135.547 98.425,135.459 98.926,135.459 C99.348,135.459 99.711,135.553 100.016,135.74 C100.321,135.922 100.57,136.159 100.766,136.455 C100.959,136.754 101.1,137.088 101.188,137.463 C101.282,137.838 101.328,138.213 101.328,138.588 z M101.328,138.588" fill="#000000"/>
    <g>
      <path d="M103.461,132.096 L103.461,142.268 L104.363,142.268 L104.363,132.096 z M103.461,132.096" fill="#000000"/>
      <path d="M111.305,138.073 L106.547,138.073 C106.585,137.744 106.664,137.422 106.781,137.1 C106.899,136.781 107.054,136.499 107.25,136.256 C107.452,136.016 107.695,135.823 107.977,135.682 C108.264,135.535 108.598,135.459 108.973,135.459 C109.33,135.459 109.652,135.535 109.934,135.682 C110.221,135.823 110.464,136.016 110.66,136.256 C110.862,136.499 111.018,136.781 111.129,137.1 C111.237,137.413 111.296,137.739 111.305,138.073 z M106.547,138.834 L112.207,138.834 C112.222,138.319 112.172,137.815 112.055,137.323 C111.944,136.824 111.756,136.382 111.492,135.998 C111.235,135.609 110.895,135.295 110.473,135.061 C110.057,134.821 109.559,134.698 108.973,134.698 C108.387,134.698 107.883,134.812 107.461,135.037 C107.039,135.257 106.694,135.55 106.43,135.916 C106.163,136.285 105.964,136.701 105.832,137.17 C105.706,137.633 105.645,138.105 105.645,138.588 C105.645,139.113 105.706,139.614 105.832,140.088 C105.964,140.557 106.163,140.973 106.43,141.33 C106.694,141.682 107.039,141.96 107.461,142.162 C107.883,142.365 108.387,142.467 108.973,142.467 C109.902,142.467 110.619,142.241 111.129,141.787 C111.636,141.327 111.985,140.68 112.172,139.842 L111.281,139.842 C111.132,140.413 110.874,140.87 110.508,141.213 C110.139,141.559 109.629,141.729 108.973,141.729 C108.542,141.729 108.176,141.641 107.871,141.459 C107.567,141.281 107.312,141.055 107.11,140.78 C106.913,140.498 106.77,140.188 106.676,139.842 C106.588,139.49 106.547,139.157 106.547,138.834 z M106.547,138.834" fill="#000000"/>
    </g>
    <path d="M117.665,137.065 L118.556,137.065 C118.538,136.666 118.456,136.324 118.31,136.033 C118.169,135.738 117.976,135.491 117.736,135.295 C117.492,135.093 117.211,134.944 116.892,134.85 C116.578,134.75 116.236,134.698 115.861,134.698 C115.538,134.698 115.216,134.739 114.888,134.815 C114.56,134.894 114.261,135.014 113.997,135.178 C113.731,135.336 113.517,135.547 113.353,135.811 C113.189,136.077 113.107,136.397 113.107,136.772 C113.107,137.085 113.156,137.346 113.259,137.557 C113.359,137.768 113.505,137.949 113.693,138.096 C113.88,138.245 114.094,138.371 114.337,138.471 C114.586,138.574 114.859,138.658 115.157,138.729 L116.306,138.987 C116.508,139.033 116.707,139.092 116.904,139.162 C117.097,139.227 117.27,139.309 117.419,139.408 C117.566,139.511 117.689,139.637 117.782,139.783 C117.876,139.933 117.923,140.117 117.923,140.334 C117.923,140.586 117.856,140.8 117.724,140.979 C117.598,141.152 117.434,141.295 117.232,141.412 C117.035,141.53 116.821,141.612 116.587,141.658 C116.353,141.705 116.124,141.729 115.907,141.729 C115.313,141.729 114.812,141.576 114.407,141.272 C114,140.961 113.778,140.498 113.739,139.889 L112.849,139.889 C112.919,140.788 113.224,141.445 113.763,141.858 C114.302,142.265 114.999,142.467 115.861,142.467 C116.203,142.467 116.552,142.426 116.904,142.35 C117.255,142.28 117.571,142.159 117.853,141.987 C118.134,141.808 118.363,141.576 118.544,141.295 C118.723,141.014 118.814,140.674 118.814,140.276 C118.814,139.948 118.749,139.666 118.626,139.432 C118.509,139.198 118.351,138.998 118.157,138.834 C117.961,138.67 117.736,138.541 117.478,138.448 C117.226,138.348 116.974,138.278 116.716,138.237 L115.521,137.967 C115.371,137.929 115.207,137.879 115.029,137.815 C114.847,137.753 114.68,137.674 114.525,137.58 C114.375,137.487 114.249,137.375 114.15,137.24 C114.047,137.1 113.997,136.93 113.997,136.725 C113.997,136.49 114.047,136.291 114.15,136.127 C114.258,135.963 114.399,135.834 114.571,135.74 C114.741,135.641 114.929,135.571 115.134,135.53 C115.336,135.483 115.538,135.459 115.743,135.459 C115.992,135.459 116.23,135.491 116.458,135.553 C116.693,135.617 116.895,135.714 117.068,135.846 C117.246,135.981 117.387,136.148 117.489,136.35 C117.589,136.555 117.648,136.792 117.665,137.065 z M117.665,137.065" fill="#000000"/>
    <path d="M87.799,8.702 L87.799,9.523 L91.338,9.523 L91.338,18.874 L92.299,18.874 L92.299,9.523 L95.85,9.523 L95.85,8.702 z M87.799,8.702" fill="#000000"/>
    <g>
      <path d="M95.188,11.526 L95.188,18.874 L96.09,18.874 L96.09,14.96 C96.09,14.57 96.155,14.21 96.29,13.882 C96.422,13.554 96.609,13.273 96.852,13.038 C97.092,12.798 97.38,12.613 97.708,12.487 C98.042,12.356 98.414,12.3 98.821,12.323 L98.821,11.421 C98.156,11.392 97.582,11.538 97.098,11.866 C96.621,12.189 96.269,12.649 96.044,13.249 L96.008,13.249 L96.008,11.526 z M95.188,11.526" fill="#000000"/>
      <path d="M99.483,13.776 L100.374,13.776 C100.397,13.176 100.588,12.742 100.948,12.476 C101.305,12.203 101.771,12.065 102.342,12.065 C102.606,12.065 102.858,12.089 103.092,12.136 C103.327,12.177 103.529,12.253 103.702,12.37 C103.881,12.482 104.018,12.634 104.112,12.827 C104.212,13.024 104.264,13.273 104.264,13.577 C104.264,13.774 104.235,13.935 104.182,14.058 C104.135,14.184 104.065,14.28 103.971,14.351 C103.878,14.421 103.755,14.474 103.608,14.503 C103.467,14.526 103.303,14.55 103.116,14.573 C102.63,14.629 102.149,14.688 101.674,14.749 C101.206,14.814 100.784,14.922 100.409,15.077 C100.034,15.227 99.732,15.446 99.506,15.733 C99.278,16.024 99.167,16.425 99.167,16.94 C99.167,17.31 99.228,17.629 99.354,17.901 C99.486,18.168 99.662,18.391 99.881,18.569 C100.107,18.742 100.368,18.868 100.667,18.944 C100.971,19.029 101.291,19.073 101.628,19.073 C101.985,19.073 102.296,19.038 102.553,18.968 C102.817,18.903 103.051,18.813 103.256,18.687 C103.467,18.564 103.655,18.411 103.819,18.23 C103.983,18.042 104.147,17.831 104.311,17.597 L104.335,17.597 C104.335,17.784 104.346,17.957 104.37,18.112 C104.393,18.271 104.443,18.405 104.522,18.523 C104.598,18.634 104.704,18.719 104.839,18.78 C104.979,18.845 105.161,18.874 105.389,18.874 C105.512,18.874 105.615,18.871 105.694,18.862 C105.779,18.857 105.873,18.839 105.975,18.815 L105.975,18.065 C105.887,18.107 105.794,18.124 105.694,18.124 C105.342,18.124 105.167,17.942 105.167,17.573 L105.167,13.671 C105.167,13.179 105.085,12.78 104.921,12.476 C104.762,12.165 104.557,11.922 104.299,11.749 C104.042,11.579 103.749,11.462 103.421,11.398 C103.098,11.336 102.779,11.304 102.46,11.304 C102.029,11.304 101.639,11.357 101.288,11.456 C100.936,11.55 100.626,11.699 100.362,11.901 C100.104,12.098 99.896,12.353 99.741,12.663 C99.591,12.977 99.506,13.349 99.483,13.776 z M104.264,14.855 L104.264,16.026 C104.264,16.387 104.194,16.712 104.053,16.999 C103.919,17.28 103.737,17.524 103.503,17.726 C103.268,17.922 102.993,18.074 102.682,18.183 C102.369,18.285 102.041,18.335 101.698,18.335 C101.493,18.335 101.291,18.306 101.089,18.241 C100.892,18.171 100.716,18.074 100.561,17.948 C100.412,17.816 100.292,17.664 100.198,17.491 C100.11,17.313 100.069,17.11 100.069,16.882 C100.069,16.524 100.174,16.246 100.385,16.05 C100.596,15.857 100.866,15.707 101.194,15.605 C101.528,15.496 101.9,15.417 102.307,15.37 C102.712,15.317 103.104,15.253 103.479,15.183 C103.602,15.168 103.749,15.136 103.913,15.089 C104.077,15.036 104.185,14.957 104.241,14.855 z M104.264,14.855" fill="#000000"/>
    </g>
    <path d="M106.816,8.702 L106.816,10.144 L107.718,10.144 L107.718,8.702 z M106.816,11.526 L106.816,18.874 L107.718,18.874 L107.718,11.526 z M106.816,11.526" fill="#000000"/>
    <path d="M109.377,11.526 L109.377,18.874 L110.268,18.874 L110.268,14.585 C110.282,14.228 110.344,13.894 110.455,13.589 C110.564,13.278 110.713,13.012 110.901,12.792 C111.094,12.566 111.334,12.391 111.615,12.265 C111.897,12.133 112.216,12.065 112.576,12.065 C112.943,12.065 113.247,12.124 113.49,12.241 C113.731,12.353 113.924,12.508 114.065,12.71 C114.205,12.906 114.302,13.141 114.358,13.413 C114.419,13.68 114.451,13.97 114.451,14.28 L114.451,18.874 L115.342,18.874 L115.342,14.14 C115.342,13.703 115.298,13.308 115.213,12.956 C115.125,12.605 114.979,12.309 114.768,12.065 C114.563,11.825 114.287,11.638 113.936,11.503 C113.59,11.371 113.162,11.304 112.647,11.304 C112.131,11.304 111.653,11.441 111.217,11.714 C110.778,11.989 110.473,12.347 110.303,12.792 L110.268,12.792 L110.268,11.526 z M109.377,11.526" fill="#000000"/>
    <path d="M116.89,8.702 L116.89,10.144 L117.792,10.144 L117.792,8.702 z M116.89,11.526 L116.89,18.874 L117.792,18.874 L117.792,11.526 z M116.89,11.526" fill="#000000"/>
    <path d="M119.451,11.526 L119.451,18.874 L120.342,18.874 L120.342,14.585 C120.356,14.228 120.418,13.894 120.529,13.589 C120.638,13.278 120.787,13.012 120.974,12.792 C121.168,12.566 121.408,12.391 121.689,12.265 C121.971,12.133 122.29,12.065 122.65,12.065 C123.016,12.065 123.321,12.124 123.564,12.241 C123.805,12.353 123.998,12.508 124.139,12.71 C124.279,12.906 124.376,13.141 124.431,13.413 C124.493,13.68 124.525,13.97 124.525,14.28 L124.525,18.874 L125.416,18.874 L125.416,14.14 C125.416,13.703 125.372,13.308 125.287,12.956 C125.199,12.605 125.053,12.309 124.842,12.065 C124.637,11.825 124.361,11.638 124.01,11.503 C123.664,11.371 123.236,11.304 122.721,11.304 C122.205,11.304 121.727,11.441 121.291,11.714 C120.851,11.989 120.547,12.347 120.377,12.792 L120.342,12.792 L120.342,11.526 z M119.451,11.526" fill="#000000"/>
    <path d="M133.163,18.276 L133.163,11.526 L132.272,11.526 L132.272,12.792 L132.237,12.792 C132.149,12.59 132.029,12.399 131.874,12.218 C131.716,12.039 131.537,11.884 131.335,11.749 C131.139,11.608 130.919,11.5 130.679,11.421 C130.436,11.345 130.178,11.304 129.905,11.304 C129.372,11.304 128.9,11.403 128.487,11.597 C128.071,11.793 127.726,12.06 127.444,12.394 C127.163,12.731 126.946,13.126 126.8,13.577 C126.65,14.031 126.577,14.509 126.577,15.007 C126.577,15.531 126.639,16.024 126.765,16.483 C126.888,16.946 127.084,17.348 127.351,17.69 C127.623,18.036 127.966,18.306 128.382,18.499 C128.804,18.695 129.311,18.792 129.905,18.792 C130.444,18.792 130.913,18.657 131.312,18.382 C131.716,18.101 132.026,17.734 132.237,17.28 L132.272,17.28 L132.272,18.276 C132.272,19.167 132.085,19.85 131.71,20.327 C131.341,20.802 130.74,21.042 129.905,21.042 C129.653,21.042 129.407,21.013 129.167,20.96 C128.933,20.904 128.716,20.819 128.522,20.702 C128.326,20.591 128.159,20.444 128.019,20.257 C127.884,20.075 127.796,19.85 127.749,19.577 L126.847,19.577 C126.876,19.958 126.987,20.292 127.175,20.573 C127.362,20.855 127.591,21.083 127.866,21.265 C128.147,21.443 128.464,21.575 128.815,21.663 C129.167,21.748 129.53,21.792 129.905,21.792 C130.497,21.792 131.001,21.71 131.417,21.546 C131.83,21.388 132.167,21.159 132.425,20.855 C132.683,20.55 132.87,20.178 132.987,19.741 C133.105,19.302 133.163,18.815 133.163,18.276 z M129.905,18.03 C129.483,18.03 129.12,17.948 128.815,17.784 C128.511,17.62 128.256,17.403 128.054,17.128 C127.857,16.856 127.714,16.542 127.62,16.19 C127.526,15.839 127.48,15.482 127.48,15.112 C127.48,14.732 127.521,14.359 127.608,13.999 C127.702,13.633 127.846,13.308 128.042,13.026 C128.244,12.739 128.499,12.508 128.804,12.335 C129.108,12.156 129.475,12.065 129.905,12.065 C130.327,12.065 130.685,12.156 130.983,12.335 C131.288,12.517 131.534,12.754 131.722,13.05 C131.915,13.34 132.056,13.668 132.144,14.034 C132.229,14.395 132.272,14.755 132.272,15.112 C132.272,15.482 132.22,15.839 132.12,16.19 C132.018,16.542 131.865,16.856 131.663,17.128 C131.467,17.403 131.221,17.62 130.925,17.784 C130.635,17.948 130.295,18.03 129.905,18.03 z M129.905,18.03" fill="#000000"/>
    <path d="M87.776,32.45 L91.537,42.622 L92.662,42.622 L96.436,32.45 L95.404,32.45 L92.135,41.556 L92.1,41.556 L88.795,32.45 z M87.776,32.45" fill="#000000"/>
    <g>
      <path d="M96.148,37.524 L97.039,37.524 C97.062,36.924 97.253,36.49 97.613,36.224 C97.971,35.951 98.436,35.813 99.008,35.813 C99.271,35.813 99.523,35.837 99.758,35.884 C99.992,35.925 100.194,36.001 100.367,36.118 C100.546,36.23 100.683,36.382 100.777,36.575 C100.877,36.771 100.929,37.021 100.929,37.325 C100.929,37.521 100.9,37.683 100.847,37.806 C100.801,37.932 100.73,38.028 100.637,38.099 C100.543,38.169 100.42,38.222 100.273,38.251 C100.133,38.274 99.969,38.298 99.781,38.321 C99.295,38.377 98.814,38.436 98.34,38.497 C97.871,38.562 97.449,38.67 97.074,38.825 C96.699,38.975 96.397,39.194 96.172,39.481 C95.943,39.771 95.832,40.173 95.832,40.688 C95.832,41.058 95.893,41.377 96.019,41.649 C96.151,41.916 96.327,42.139 96.547,42.317 C96.772,42.49 97.033,42.616 97.332,42.692 C97.637,42.777 97.956,42.821 98.293,42.821 C98.65,42.821 98.961,42.786 99.219,42.716 C99.482,42.651 99.717,42.561 99.922,42.435 C100.133,42.312 100.32,42.159 100.484,41.978 C100.648,41.79 100.812,41.579 100.976,41.345 L101,41.345 C101,41.532 101.012,41.705 101.035,41.86 C101.058,42.019 101.108,42.153 101.187,42.271 C101.263,42.382 101.369,42.467 101.504,42.528 C101.644,42.593 101.826,42.622 102.054,42.622 C102.178,42.622 102.28,42.619 102.359,42.61 C102.444,42.605 102.538,42.587 102.64,42.563 L102.64,41.813 C102.553,41.855 102.459,41.872 102.359,41.872 C102.008,41.872 101.832,41.69 101.832,41.321 L101.832,37.419 C101.832,36.927 101.75,36.528 101.586,36.224 C101.428,35.913 101.222,35.67 100.965,35.497 C100.707,35.327 100.414,35.21 100.086,35.146 C99.763,35.084 99.444,35.052 99.125,35.052 C98.694,35.052 98.304,35.105 97.953,35.204 C97.601,35.298 97.291,35.447 97.027,35.649 C96.769,35.846 96.561,36.101 96.406,36.411 C96.257,36.725 96.172,37.097 96.148,37.524 z M100.929,38.603 L100.929,39.774 C100.929,40.135 100.859,40.46 100.719,40.747 C100.584,41.028 100.402,41.271 100.168,41.474 C99.933,41.67 99.658,41.822 99.347,41.931 C99.034,42.033 98.706,42.083 98.363,42.083 C98.158,42.083 97.956,42.054 97.754,41.989 C97.557,41.919 97.382,41.822 97.226,41.696 C97.077,41.564 96.957,41.412 96.863,41.239 C96.775,41.061 96.734,40.858 96.734,40.63 C96.734,40.272 96.84,39.994 97.051,39.798 C97.262,39.605 97.531,39.455 97.859,39.353 C98.193,39.244 98.565,39.165 98.972,39.118 C99.377,39.065 99.769,39.001 100.144,38.931 C100.267,38.916 100.414,38.884 100.578,38.837 C100.742,38.784 100.85,38.705 100.906,38.603 z M100.929,38.603" fill="#000000"/>
      <path d="M103.454,32.45 L103.454,42.622 L104.356,42.622 L104.356,32.45 z M103.454,32.45" fill="#000000"/>
    </g>
    <path d="M106.038,32.45 L106.038,33.892 L106.94,33.892 L106.94,32.45 z M106.038,35.274 L106.038,42.622 L106.94,42.622 L106.94,35.274 z M106.038,35.274" fill="#000000"/>
    <path d="M115.079,42.622 L115.079,32.45 L114.177,32.45 L114.177,36.669 L114.154,36.669 C114.06,36.405 113.922,36.174 113.744,35.978 C113.571,35.775 113.369,35.603 113.134,35.462 C112.906,35.321 112.665,35.222 112.408,35.157 C112.15,35.087 111.88,35.052 111.599,35.052 C111.042,35.052 110.559,35.157 110.146,35.368 C109.73,35.579 109.384,35.866 109.103,36.224 C108.828,36.575 108.625,36.985 108.494,37.454 C108.359,37.923 108.294,38.421 108.294,38.942 C108.294,39.467 108.359,39.968 108.494,40.442 C108.625,40.911 108.828,41.327 109.103,41.685 C109.384,42.036 109.73,42.314 110.146,42.517 C110.559,42.719 111.042,42.821 111.599,42.821 C111.863,42.821 112.132,42.78 112.408,42.704 C112.68,42.634 112.935,42.528 113.169,42.388 C113.404,42.247 113.615,42.08 113.802,41.884 C113.99,41.682 114.13,41.462 114.224,41.228 L114.247,41.228 L114.247,42.622 z M109.197,38.942 C109.197,38.567 109.238,38.192 109.326,37.817 C109.419,37.442 109.563,37.108 109.759,36.81 C109.953,36.514 110.204,36.276 110.509,36.095 C110.814,35.907 111.177,35.813 111.599,35.813 C112.074,35.813 112.478,35.907 112.806,36.095 C113.134,36.276 113.398,36.514 113.603,36.81 C113.805,37.108 113.949,37.442 114.037,37.817 C114.13,38.192 114.177,38.567 114.177,38.942 C114.177,39.326 114.13,39.704 114.037,40.079 C113.949,40.454 113.805,40.791 113.603,41.087 C113.398,41.377 113.134,41.614 112.806,41.802 C112.478,41.989 112.074,42.083 111.599,42.083 C111.177,42.083 110.814,41.989 110.509,41.802 C110.204,41.614 109.953,41.377 109.759,41.087 C109.563,40.791 109.419,40.454 109.326,40.079 C109.238,39.704 109.197,39.326 109.197,38.942 z M109.197,38.942" fill="#000000"/>
    <path d="M116.532,37.524 L117.423,37.524 C117.446,36.924 117.637,36.49 117.997,36.224 C118.354,35.951 118.82,35.813 119.392,35.813 C119.655,35.813 119.907,35.837 120.142,35.884 C120.376,35.925 120.578,36.001 120.751,36.118 C120.93,36.23 121.067,36.382 121.161,36.575 C121.261,36.771 121.313,37.021 121.313,37.325 C121.313,37.521 121.284,37.683 121.231,37.806 C121.185,37.932 121.114,38.028 121.021,38.099 C120.927,38.169 120.804,38.222 120.657,38.251 C120.517,38.274 120.353,38.298 120.165,38.321 C119.679,38.377 119.198,38.436 118.724,38.497 C118.255,38.562 117.833,38.67 117.458,38.825 C117.083,38.975 116.781,39.194 116.556,39.481 C116.327,39.771 116.216,40.173 116.216,40.688 C116.216,41.058 116.277,41.377 116.403,41.649 C116.535,41.916 116.711,42.139 116.931,42.317 C117.156,42.49 117.417,42.616 117.716,42.692 C118.021,42.777 118.34,42.821 118.677,42.821 C119.034,42.821 119.345,42.786 119.603,42.716 C119.866,42.651 120.101,42.561 120.306,42.435 C120.517,42.312 120.704,42.159 120.868,41.978 C121.032,41.79 121.196,41.579 121.36,41.345 L121.384,41.345 C121.384,41.532 121.396,41.705 121.419,41.86 C121.442,42.019 121.492,42.153 121.571,42.271 C121.647,42.382 121.753,42.467 121.888,42.528 C122.028,42.593 122.21,42.622 122.438,42.622 C122.562,42.622 122.664,42.619 122.743,42.61 C122.828,42.605 122.922,42.587 123.024,42.563 L123.024,41.813 C122.937,41.855 122.843,41.872 122.743,41.872 C122.392,41.872 122.216,41.69 122.216,41.321 L122.216,37.419 C122.216,36.927 122.134,36.528 121.97,36.224 C121.812,35.913 121.606,35.67 121.349,35.497 C121.091,35.327 120.798,35.21 120.47,35.146 C120.147,35.084 119.828,35.052 119.509,35.052 C119.078,35.052 118.688,35.105 118.337,35.204 C117.985,35.298 117.675,35.447 117.411,35.649 C117.153,35.846 116.945,36.101 116.79,36.411 C116.641,36.725 116.556,37.097 116.532,37.524 z M121.313,38.603 L121.313,39.774 C121.313,40.135 121.243,40.46 121.103,40.747 C120.968,41.028 120.786,41.271 120.552,41.474 C120.317,41.67 120.042,41.822 119.731,41.931 C119.418,42.033 119.09,42.083 118.747,42.083 C118.542,42.083 118.34,42.054 118.138,41.989 C117.941,41.919 117.766,41.822 117.61,41.696 C117.461,41.564 117.341,41.412 117.247,41.239 C117.159,41.061 117.118,40.858 117.118,40.63 C117.118,40.272 117.224,39.994 117.435,39.798 C117.646,39.605 117.915,39.455 118.243,39.353 C118.577,39.244 118.949,39.165 119.356,39.118 C119.761,39.065 120.153,39.001 120.528,38.931 C120.651,38.916 120.798,38.884 120.962,38.837 C121.126,38.784 121.234,38.705 121.29,38.603 z M121.313,38.603" fill="#000000"/>
    <path d="M125.283,35.274 L125.283,33.06 L124.381,33.06 L124.381,35.274 L123.104,35.274 L123.104,36.024 L124.381,36.024 L124.381,41.052 C124.372,41.679 124.486,42.106 124.721,42.341 C124.961,42.575 125.38,42.692 125.975,42.692 C126.106,42.692 126.238,42.687 126.373,42.681 C126.505,42.672 126.637,42.669 126.772,42.669 L126.772,41.907 C126.514,41.939 126.259,41.954 126.01,41.954 C125.682,41.931 125.477,41.837 125.4,41.673 C125.321,41.509 125.283,41.28 125.283,40.981 L125.283,36.024 L126.772,36.024 L126.772,35.274 z M125.283,35.274" fill="#000000"/>
    <path d="M127.992,32.45 L127.992,33.892 L128.894,33.892 L128.894,32.45 z M127.992,35.274 L127.992,42.622 L128.894,42.622 L128.894,35.274 z M127.992,35.274" fill="#000000"/>
    <path d="M133.67,35.813 C134.098,35.813 134.473,35.904 134.795,36.083 C135.115,36.265 135.381,36.502 135.592,36.798 C135.809,37.088 135.973,37.419 136.084,37.794 C136.193,38.169 136.248,38.553 136.248,38.942 C136.248,39.335 136.193,39.716 136.084,40.091 C135.973,40.466 135.809,40.803 135.592,41.099 C135.381,41.397 135.115,41.635 134.795,41.813 C134.473,41.995 134.098,42.083 133.67,42.083 C133.24,42.083 132.865,41.995 132.545,41.813 C132.223,41.635 131.954,41.397 131.737,41.099 C131.526,40.803 131.365,40.466 131.256,40.091 C131.145,39.716 131.092,39.335 131.092,38.942 C131.092,38.553 131.145,38.169 131.256,37.794 C131.365,37.419 131.526,37.088 131.737,36.798 C131.954,36.502 132.223,36.265 132.545,36.083 C132.865,35.904 133.24,35.813 133.67,35.813 z M133.67,35.052 C133.108,35.052 132.61,35.157 132.182,35.368 C131.751,35.579 131.388,35.86 131.092,36.212 C130.793,36.563 130.568,36.974 130.413,37.442 C130.263,37.911 130.19,38.412 130.19,38.942 C130.19,39.476 130.263,39.98 130.413,40.454 C130.568,40.923 130.793,41.333 131.092,41.685 C131.388,42.036 131.751,42.314 132.182,42.517 C132.61,42.719 133.108,42.821 133.67,42.821 C134.233,42.821 134.728,42.719 135.159,42.517 C135.586,42.314 135.95,42.036 136.248,41.685 C136.544,41.333 136.767,40.923 136.916,40.454 C137.072,39.98 137.151,39.476 137.151,38.942 C137.151,38.412 137.072,37.911 136.916,37.442 C136.767,36.974 136.544,36.563 136.248,36.212 C135.95,35.86 135.586,35.579 135.159,35.368 C134.728,35.157 134.233,35.052 133.67,35.052 z M133.67,35.052" fill="#000000"/>
    <path d="M138.307,35.274 L138.307,42.622 L139.197,42.622 L139.197,38.333 C139.212,37.976 139.273,37.642 139.385,37.337 C139.493,37.026 139.643,36.76 139.83,36.54 C140.023,36.314 140.264,36.139 140.545,36.013 C140.826,35.881 141.145,35.813 141.506,35.813 C141.872,35.813 142.177,35.872 142.42,35.989 C142.66,36.101 142.853,36.256 142.994,36.458 C143.135,36.654 143.231,36.889 143.287,37.161 C143.349,37.428 143.381,37.718 143.381,38.028 L143.381,42.622 L144.271,42.622 L144.271,37.888 C144.271,37.451 144.227,37.056 144.143,36.704 C144.055,36.353 143.908,36.057 143.697,35.813 C143.492,35.573 143.217,35.386 142.865,35.251 C142.519,35.119 142.092,35.052 141.576,35.052 C141.06,35.052 140.583,35.189 140.146,35.462 C139.707,35.737 139.402,36.095 139.232,36.54 L139.197,36.54 L139.197,35.274 z M138.307,35.274" fill="#000000"/>
    <path d="M-29.432,104.99 L138.688,104.99" fill-opacity="0" stroke="#000000" stroke-width="1.121" stroke-dasharray="1.121,2.242" stroke-miterlimit="10"/>
    <path d="M-29.432,127.405 C-18.223,116.196 82.872,116.196 138.688,116.196" fill-opacity="0" stroke="#0000FF" stroke-width="1.121" stroke-miterlimit="10"/>
    <path d="M-29.432,15.324 C-18.223,71.366 86.595,71.366 138.688,71.366" fill-opacity="0" stroke="#FF0000" stroke-width="1.121" stroke-miterlimit="10"/>
  </g>
</svg>
